<svg xmlns="http://www.w3.org/2000/svg" width="39.754" height="40.497" viewBox="0 0 39.754 40.497">
  <path id="Tracciato_5137" data-name="Tracciato 5137" d="M248.348,107.6a.793.793,0,0,0-.567-.659l-5.117-1.463a10.414,10.414,0,0,0-7.867.864c-.978-3.1-2.961-6.755-5.9-8.571a.791.791,0,0,0-.83,0c-2.945,1.816-4.927,5.475-5.9,8.571a10.417,10.417,0,0,0-7.869-.864l-5.117,1.465a.79.79,0,0,0-.189,1.437l2.274,1.365a6.96,6.96,0,0,1,3.014,3.746,10.38,10.38,0,0,0,3.721,5.083,11.094,11.094,0,0,0-7.867,10.107l-.261,5.677a.788.788,0,0,0,.442.746.778.778,0,0,0,.348.081.793.793,0,0,0,.513-.189l2.155-1.836a7.485,7.485,0,0,1,4.851-1.787,11.145,11.145,0,0,0,4.419-.918,14.3,14.3,0,0,0,5.434,7.556.78.78,0,0,0,.448.139.789.789,0,0,0,.45-.139,14.3,14.3,0,0,0,5.433-7.556,11.151,11.151,0,0,0,4.419.918,7.49,7.49,0,0,1,4.853,1.787L245.785,135a.8.8,0,0,0,.515.189.772.772,0,0,0,.346-.081.789.789,0,0,0,.444-.746l-.262-5.677a11.089,11.089,0,0,0-7.867-10.107,10.38,10.38,0,0,0,3.721-5.083,6.968,6.968,0,0,1,3.014-3.746l2.274-1.365A.788.788,0,0,0,248.348,107.6Zm-19.87-8.207c2.48,1.764,4.149,5.1,4.939,7.849a10.406,10.406,0,0,0-3.516,4.942l-.631,1.876v-6.039a2.218,2.218,0,0,0,1.423-2.067V105.1a2.214,2.214,0,0,0-4.429,0v.858a2.218,2.218,0,0,0,1.423,2.067v6.038l-.63-1.874a10.409,10.409,0,0,0-3.518-4.942C224.33,104.5,226,101.159,228.478,99.395Zm.633,6.561a.632.632,0,0,1-1.264,0V105.1a.632.632,0,0,1,1.264,0Zm-13.337,7.032a8.548,8.548,0,0,0-3.7-4.6l-.711-.427,3.364-.962a8.844,8.844,0,0,1,10.831,5.69l1.58,4.694a15.252,15.252,0,0,1-4.791-5,2.218,2.218,0,0,0-.319-2.728l-.605-.605a2.214,2.214,0,0,0-3.131,3.131l.605.605a2.2,2.2,0,0,0,1.565.647,2.241,2.241,0,0,0,.62-.087,16.849,16.849,0,0,0,5.253,5.4A8.866,8.866,0,0,1,215.774,112.987Zm5.041-1.238a.631.631,0,0,1-.8-.076l-.605-.605a.632.632,0,1,1,.894-.894l.605.605a.632.632,0,0,1,.013.879A.835.835,0,0,0,220.814,111.749Zm-2.637,18.042a9.069,9.069,0,0,0-5.879,2.166l-.767.654.176-3.856a9.491,9.491,0,0,1,8.285-9c.019,0,.039-.006.06-.01a10.475,10.475,0,0,0,2.948.787l-.458.21a18.863,18.863,0,0,0-6.022,4.367c-.3.322-2.651,2.681-2.331,2.978.152.139,2.719-1.649,2.912-1.649a.793.793,0,0,0,.581-.254,17.286,17.286,0,0,1,5.518-4l.1-.045a7.272,7.272,0,0,0-1.287,4.481,12.791,12.791,0,0,0,.207,2.273A9.55,9.55,0,0,1,218.178,129.791Zm10.3,6.593a12.635,12.635,0,0,1-4.884-9.766c0-3.228,1.449-4.411,4.092-6.227v6.252c0,.437.254,6.949.691,6.949s.892-6.512.892-6.949v-6.252c2.643,1.816,4.092,3,4.092,6.227A12.63,12.63,0,0,1,228.478,136.384Zm16.77-7.629.178,3.856-.767-.654a9.072,9.072,0,0,0-5.879-2.166,9.544,9.544,0,0,1-4.042-.9,12.945,12.945,0,0,0,.207-2.273,7.272,7.272,0,0,0-1.289-4.481l.1.045a17.294,17.294,0,0,1,5.52,4,.788.788,0,0,0,.581.254c.191,0,1.688,1.789,1.839,1.649.322-.3-.962-2.656-1.259-2.978a18.838,18.838,0,0,0-6.02-4.367l-.46-.21a10.491,10.491,0,0,0,2.943-.783A9.57,9.57,0,0,1,245.248,128.755Zm-.364-20.365a8.542,8.542,0,0,0-3.7,4.6,8.868,8.868,0,0,1-10.561,5.763,16.866,16.866,0,0,0,5.253-5.4,2.241,2.241,0,0,0,.62.087,2.206,2.206,0,0,0,1.565-.647l.605-.605a2.214,2.214,0,1,0-3.132-3.131l-.605.605a2.216,2.216,0,0,0-.319,2.726,15.268,15.268,0,0,1-4.79,5l1.58-4.694A8.844,8.844,0,0,1,242.23,107l3.364.962Zm-8.743,3.359a.83.83,0,0,0-.107-.091.632.632,0,0,1,.015-.879l.605-.605a.629.629,0,0,1,.894,0,.633.633,0,0,1,0,.894l-.605.605A.634.634,0,0,1,236.141,111.749Z" transform="translate(-208.601 -97.655)" fill="#6e4e45"/>
</svg>
