<?xml version="1.0" encoding="UTF-8" standalone="no" ?>
<!DOCTYPE svg PUBLIC "-//W3C//DTD SVG 1.1//EN" "http://www.w3.org/Graphics/SVG/1.1/DTD/svg11.dtd">
<svg xmlns="http://www.w3.org/2000/svg" xmlns:xlink="http://www.w3.org/1999/xlink" version="1.1" width="349.99" height="349.99" viewBox="0 0 349.99 349.99" xml:space="preserve">
<desc>Created with Fabric.js 1.7.22</desc>
<defs>
</defs>
<g id="icon" style="stroke: none; stroke-width: 1; stroke-dasharray: none; stroke-linecap: butt; stroke-linejoin: miter; stroke-miterlimit: 10; fill: none; fill-rule: nonzero; opacity: 1;" transform="translate(-1.9443888888888807 -1.9443888888888807) scale(3.89 3.89)" >
	<path d="M 76.739 72.313 c -6.59 0 -13.261 -1.775 -13.261 -5.169 c 0 -0.553 0.447 -1 1 -1 s 1 0.447 1 1 c 0 1.075 3.975 3.169 11.261 3.169 S 88 68.219 88 67.144 c 0 -0.553 0.447 -1 1 -1 s 1 0.447 1 1 C 90 70.537 83.329 72.313 76.739 72.313 z" style="stroke: none; stroke-width: 1; stroke-dasharray: none; stroke-linecap: butt; stroke-linejoin: miter; stroke-miterlimit: 10; fill: rgb(0,0,0); fill-rule: nonzero; opacity: 1;" transform=" matrix(1 0 0 1 0 0) " stroke-linecap="round" />
	<path d="M 76.739 66.043 c -6.59 0 -13.261 -1.775 -13.261 -5.169 c 0 -0.553 0.447 -1 1 -1 s 1 0.447 1 1 c 0 1.075 3.975 3.169 11.261 3.169 S 88 61.949 88 60.874 c 0 -0.553 0.447 -1 1 -1 s 1 0.447 1 1 C 90 64.268 83.329 66.043 76.739 66.043 z" style="stroke: none; stroke-width: 1; stroke-dasharray: none; stroke-linecap: butt; stroke-linejoin: miter; stroke-miterlimit: 10; fill: rgb(0,0,0); fill-rule: nonzero; opacity: 1;" transform=" matrix(1 0 0 1 0 0) " stroke-linecap="round" />
	<path d="M 76.739 78.582 c -6.59 0 -13.261 -1.775 -13.261 -5.169 c 0 -0.553 0.447 -1 1 -1 s 1 0.447 1 1 c 0 1.075 3.975 3.169 11.261 3.169 S 88 74.488 88 73.413 c 0 -0.553 0.447 -1 1 -1 s 1 0.447 1 1 C 90 76.807 83.329 78.582 76.739 78.582 z" style="stroke: none; stroke-width: 1; stroke-dasharray: none; stroke-linecap: butt; stroke-linejoin: miter; stroke-miterlimit: 10; fill: rgb(0,0,0); fill-rule: nonzero; opacity: 1;" transform=" matrix(1 0 0 1 0 0) " stroke-linecap="round" />
	<path d="M 76.739 84.852 c -6.59 0 -13.261 -1.775 -13.261 -5.169 V 54.834 c 0 -0.553 0.447 -1 1 -1 s 1 0.447 1 1 v 24.849 c 0 1.075 3.975 3.169 11.261 3.169 S 88 80.758 88 79.683 V 54.834 c 0 -0.553 0.447 -1 1 -1 s 1 0.447 1 1 v 24.849 C 90 83.076 83.329 84.852 76.739 84.852 z" style="stroke: none; stroke-width: 1; stroke-dasharray: none; stroke-linecap: butt; stroke-linejoin: miter; stroke-miterlimit: 10; fill: rgb(0,0,0); fill-rule: nonzero; opacity: 1;" transform=" matrix(1 0 0 1 0 0) " stroke-linecap="round" />
	<path d="M 76.739 59.773 c -6.59 0 -13.261 -1.775 -13.261 -5.169 c 0 -0.553 0.447 -1 1 -1 s 1 0.447 1 1 c 0 1.075 3.975 3.169 11.261 3.169 S 88 55.68 88 54.604 c 0 -0.553 0.447 -1 1 -1 s 1 0.447 1 1 C 90 57.998 83.329 59.773 76.739 59.773 z" style="stroke: none; stroke-width: 1; stroke-dasharray: none; stroke-linecap: butt; stroke-linejoin: miter; stroke-miterlimit: 10; fill: rgb(0,0,0); fill-rule: nonzero; opacity: 1;" transform=" matrix(1 0 0 1 0 0) " stroke-linecap="round" />
	<path d="M 44.608 78.582 c -6.59 0 -13.261 -1.775 -13.261 -5.169 c 0 -0.553 0.448 -1 1 -1 s 1 0.447 1 1 c 0 1.075 3.975 3.169 11.261 3.169 c 7.286 0 11.261 -2.094 11.261 -3.169 c 0 -0.553 0.447 -1 1 -1 s 1 0.447 1 1 C 57.869 76.807 51.198 78.582 44.608 78.582 z" style="stroke: none; stroke-width: 1; stroke-dasharray: none; stroke-linecap: butt; stroke-linejoin: miter; stroke-miterlimit: 10; fill: rgb(0,0,0); fill-rule: nonzero; opacity: 1;" transform=" matrix(1 0 0 1 0 0) " stroke-linecap="round" />
	<path d="M 44.608 72.313 c -6.59 0 -13.261 -1.775 -13.261 -5.169 c 0 -0.553 0.448 -1 1 -1 s 1 0.447 1 1 c 0 1.075 3.975 3.169 11.261 3.169 c 7.286 0 11.261 -2.094 11.261 -3.169 c 0 -0.553 0.447 -1 1 -1 s 1 0.447 1 1 C 57.869 70.537 51.198 72.313 44.608 72.313 z" style="stroke: none; stroke-width: 1; stroke-dasharray: none; stroke-linecap: butt; stroke-linejoin: miter; stroke-miterlimit: 10; fill: rgb(0,0,0); fill-rule: nonzero; opacity: 1;" transform=" matrix(1 0 0 1 0 0) " stroke-linecap="round" />
	<path d="M 44.608 84.852 c -6.59 0 -13.261 -1.775 -13.261 -5.169 V 61.104 c 0 -0.553 0.448 -1 1 -1 s 1 0.447 1 1 v 18.579 c 0 1.075 3.975 3.169 11.261 3.169 c 7.286 0 11.261 -2.094 11.261 -3.169 V 61.104 c 0 -0.553 0.447 -1 1 -1 s 1 0.447 1 1 v 18.579 C 57.869 83.076 51.198 84.852 44.608 84.852 z" style="stroke: none; stroke-width: 1; stroke-dasharray: none; stroke-linecap: butt; stroke-linejoin: miter; stroke-miterlimit: 10; fill: rgb(0,0,0); fill-rule: nonzero; opacity: 1;" transform=" matrix(1 0 0 1 0 0) " stroke-linecap="round" />
	<path d="M 56.869 62.104 c -0.553 0 -1 -0.447 -1 -1 c 0 -1.075 -3.975 -3.169 -11.261 -3.169 c -7.287 0 -11.261 2.094 -11.261 3.169 c 0 0.553 -0.448 1 -1 1 s -1 -0.447 -1 -1 c 0 -3.394 6.671 -5.169 13.261 -5.169 s 13.261 1.775 13.261 5.169 C 57.869 61.656 57.422 62.104 56.869 62.104 z" style="stroke: none; stroke-width: 1; stroke-dasharray: none; stroke-linecap: butt; stroke-linejoin: miter; stroke-miterlimit: 10; fill: rgb(0,0,0); fill-rule: nonzero; opacity: 1;" transform=" matrix(1 0 0 1 0 0) " stroke-linecap="round" />
	<path d="M 44.608 66.043 c -6.59 0 -13.261 -1.775 -13.261 -5.169 c 0 -0.553 0.448 -1 1 -1 s 1 0.447 1 1 c 0 1.075 3.975 3.169 11.261 3.169 c 7.286 0 11.261 -2.094 11.261 -3.169 c 0 -0.553 0.447 -1 1 -1 s 1 0.447 1 1 C 57.869 64.268 51.198 66.043 44.608 66.043 z" style="stroke: none; stroke-width: 1; stroke-dasharray: none; stroke-linecap: butt; stroke-linejoin: miter; stroke-miterlimit: 10; fill: rgb(0,0,0); fill-rule: nonzero; opacity: 1;" transform=" matrix(1 0 0 1 0 0) " stroke-linecap="round" />
	<path d="M 13.261 84.852 C 6.671 84.852 0 83.076 0 79.683 v -6.31 c 0 -0.553 0.448 -1 1 -1 s 1 0.447 1 1 v 6.31 c 0 1.075 3.975 3.169 11.261 3.169 c 7.287 0 11.261 -2.094 11.261 -3.169 v -6.31 c 0 -0.553 0.448 -1 1 -1 s 1 0.447 1 1 v 6.31 C 26.522 83.076 19.851 84.852 13.261 84.852 z" style="stroke: none; stroke-width: 1; stroke-dasharray: none; stroke-linecap: butt; stroke-linejoin: miter; stroke-miterlimit: 10; fill: rgb(0,0,0); fill-rule: nonzero; opacity: 1;" transform=" matrix(1 0 0 1 0 0) " stroke-linecap="round" />
	<path d="M 25.522 74.373 c -0.552 0 -1 -0.447 -1 -1 c 0 -1.075 -3.975 -3.169 -11.261 -3.169 C 5.975 70.204 2 72.298 2 73.373 c 0 0.553 -0.448 1 -1 1 s -1 -0.447 -1 -1 c 0 -3.394 6.671 -5.169 13.261 -5.169 s 13.261 1.775 13.261 5.169 C 26.522 73.926 26.074 74.373 25.522 74.373 z" style="stroke: none; stroke-width: 1; stroke-dasharray: none; stroke-linecap: butt; stroke-linejoin: miter; stroke-miterlimit: 10; fill: rgb(0,0,0); fill-rule: nonzero; opacity: 1;" transform=" matrix(1 0 0 1 0 0) " stroke-linecap="round" />
	<path d="M 13.261 78.313 C 6.671 78.313 0 76.537 0 73.144 c 0 -0.553 0.448 -1 1 -1 s 1 0.447 1 1 c 0 1.075 3.975 3.169 11.261 3.169 c 7.287 0 11.261 -2.094 11.261 -3.169 c 0 -0.553 0.448 -1 1 -1 s 1 0.447 1 1 C 26.522 76.537 19.851 78.313 13.261 78.313 z" style="stroke: none; stroke-width: 1; stroke-dasharray: none; stroke-linecap: butt; stroke-linejoin: miter; stroke-miterlimit: 10; fill: rgb(0,0,0); fill-rule: nonzero; opacity: 1;" transform=" matrix(1 0 0 1 0 0) " stroke-linecap="round" />
	<path d="M 76.739 46.941 c -6.59 0 -13.261 -1.775 -13.261 -5.168 c 0 -0.552 0.447 -1 1 -1 s 1 0.448 1 1 c 0 1.076 3.975 3.169 11.261 3.169 S 88 42.849 88 41.773 c 0 -0.552 0.447 -1 1 -1 s 1 0.448 1 1 C 90 45.167 83.329 46.941 76.739 46.941 z" style="stroke: none; stroke-width: 1; stroke-dasharray: none; stroke-linecap: butt; stroke-linejoin: miter; stroke-miterlimit: 10; fill: rgb(0,0,0); fill-rule: nonzero; opacity: 1;" transform=" matrix(1 0 0 1 0 0) " stroke-linecap="round" />
	<path d="M 76.739 40.672 c -6.59 0 -13.261 -1.775 -13.261 -5.169 c 0 -0.552 0.447 -1 1 -1 s 1 0.448 1 1 c 0 1.076 3.975 3.169 11.261 3.169 S 88 36.579 88 35.503 c 0 -0.552 0.447 -1 1 -1 s 1 0.448 1 1 C 90 38.897 83.329 40.672 76.739 40.672 z" style="stroke: none; stroke-width: 1; stroke-dasharray: none; stroke-linecap: butt; stroke-linejoin: miter; stroke-miterlimit: 10; fill: rgb(0,0,0); fill-rule: nonzero; opacity: 1;" transform=" matrix(1 0 0 1 0 0) " stroke-linecap="round" />
	<path d="M 76.739 53.212 c -6.59 0 -13.261 -1.775 -13.261 -5.17 c 0 -0.553 0.447 -1 1 -1 s 1 0.447 1 1 c 0 1.076 3.975 3.17 11.261 3.17 S 88 49.118 88 48.042 c 0 -0.553 0.447 -1 1 -1 s 1 0.447 1 1 C 90 51.437 83.329 53.212 76.739 53.212 z" style="stroke: none; stroke-width: 1; stroke-dasharray: none; stroke-linecap: butt; stroke-linejoin: miter; stroke-miterlimit: 10; fill: rgb(0,0,0); fill-rule: nonzero; opacity: 1;" transform=" matrix(1 0 0 1 0 0) " stroke-linecap="round" />
	<path d="M 76.739 59.48 c -6.59 0 -13.261 -1.775 -13.261 -5.169 V 29.464 c 0 -0.552 0.447 -1 1 -1 s 1 0.448 1 1 v 24.848 c 0 1.075 3.975 3.169 11.261 3.169 S 88 55.387 88 54.312 V 29.464 c 0 -0.552 0.447 -1 1 -1 s 1 0.448 1 1 v 24.848 C 90 57.705 83.329 59.48 76.739 59.48 z" style="stroke: none; stroke-width: 1; stroke-dasharray: none; stroke-linecap: butt; stroke-linejoin: miter; stroke-miterlimit: 10; fill: rgb(0,0,0); fill-rule: nonzero; opacity: 1;" transform=" matrix(1 0 0 1 0 0) " stroke-linecap="round" />
	<path d="M 89 30.464 c -0.553 0 -1 -0.448 -1 -1 c 0 -1.076 -3.975 -3.169 -11.261 -3.169 s -11.261 2.093 -11.261 3.169 c 0 0.552 -0.447 1 -1 1 s -1 -0.448 -1 -1 c 0 -3.394 6.671 -5.169 13.261 -5.169 S 90 26.07 90 29.464 C 90 30.016 89.553 30.464 89 30.464 z" style="stroke: none; stroke-width: 1; stroke-dasharray: none; stroke-linecap: butt; stroke-linejoin: miter; stroke-miterlimit: 10; fill: rgb(0,0,0); fill-rule: nonzero; opacity: 1;" transform=" matrix(1 0 0 1 0 0) " stroke-linecap="round" />
	<path d="M 76.739 34.403 c -6.59 0 -13.261 -1.776 -13.261 -5.169 c 0 -0.552 0.447 -1 1 -1 s 1 0.448 1 1 c 0 1.076 3.975 3.169 11.261 3.169 S 88 30.31 88 29.234 c 0 -0.552 0.447 -1 1 -1 s 1 0.448 1 1 C 90 32.627 83.329 34.403 76.739 34.403 z" style="stroke: none; stroke-width: 1; stroke-dasharray: none; stroke-linecap: butt; stroke-linejoin: miter; stroke-miterlimit: 10; fill: rgb(0,0,0); fill-rule: nonzero; opacity: 1;" transform=" matrix(1 0 0 1 0 0) " stroke-linecap="round" />
	<path d="M 22.788 32.93 c -2.754 0 -4.994 -2.24 -4.994 -4.994 s 2.24 -4.994 4.994 -4.994 s 4.994 2.24 4.994 4.994 S 25.542 32.93 22.788 32.93 z M 22.788 24.942 c -1.651 0 -2.994 1.343 -2.994 2.994 s 1.343 2.994 2.994 2.994 s 2.994 -1.343 2.994 -2.994 S 24.438 24.942 22.788 24.942 z" style="stroke: none; stroke-width: 1; stroke-dasharray: none; stroke-linecap: butt; stroke-linejoin: miter; stroke-miterlimit: 10; fill: rgb(0,0,0); fill-rule: nonzero; opacity: 1;" transform=" matrix(1 0 0 1 0 0) " stroke-linecap="round" />
	<path d="M 36.799 46.941 c -2.754 0 -4.994 -2.24 -4.994 -4.994 s 2.24 -4.994 4.994 -4.994 s 4.994 2.24 4.994 4.994 S 39.553 46.941 36.799 46.941 z M 36.799 38.954 c -1.651 0 -2.994 1.343 -2.994 2.994 s 1.343 2.994 2.994 2.994 s 2.994 -1.343 2.994 -2.994 S 38.45 38.954 36.799 38.954 z" style="stroke: none; stroke-width: 1; stroke-dasharray: none; stroke-linecap: butt; stroke-linejoin: miter; stroke-miterlimit: 10; fill: rgb(0,0,0); fill-rule: nonzero; opacity: 1;" transform=" matrix(1 0 0 1 0 0) " stroke-linecap="round" />
	<path d="M 18.793 46.941 c -0.256 0 -0.512 -0.097 -0.707 -0.292 c -0.391 -0.391 -0.391 -1.024 0 -1.415 l 22 -22 c 0.391 -0.391 1.023 -0.391 1.414 0 s 0.391 1.023 0 1.414 l -22 22 C 19.305 46.845 19.049 46.941 18.793 46.941 z" style="stroke: none; stroke-width: 1; stroke-dasharray: none; stroke-linecap: butt; stroke-linejoin: miter; stroke-miterlimit: 10; fill: rgb(0,0,0); fill-rule: nonzero; opacity: 1;" transform=" matrix(1 0 0 1 0 0) " stroke-linecap="round" />
	<path d="M 23.967 64.146 c -0.067 0 -0.134 -0.007 -0.202 -0.021 C 9.995 61.295 0 49.021 0 34.942 C 0 18.514 13.365 5.148 29.793 5.148 s 29.793 13.365 29.793 29.793 c 0 5.572 -1.548 11.006 -4.477 15.715 c -0.292 0.469 -0.911 0.61 -1.378 0.321 c -0.469 -0.292 -0.612 -0.909 -0.321 -1.378 c 2.732 -4.392 4.176 -9.46 4.176 -14.659 c 0 -15.325 -12.468 -27.793 -27.793 -27.793 S 2 19.617 2 34.942 c 0 13.134 9.323 24.584 22.167 27.224 c 0.541 0.111 0.89 0.64 0.778 1.181 C 24.849 63.82 24.432 64.146 23.967 64.146 z" style="stroke: none; stroke-width: 1; stroke-dasharray: none; stroke-linecap: butt; stroke-linejoin: miter; stroke-miterlimit: 10; fill: rgb(0,0,0); fill-rule: nonzero; opacity: 1;" transform=" matrix(1 0 0 1 0 0) " stroke-linecap="round" />
</g>
</svg>