<?xml version="1.0" encoding="UTF-8" standalone="no" ?>
<!DOCTYPE svg PUBLIC "-//W3C//DTD SVG 1.1//EN" "http://www.w3.org/Graphics/SVG/1.1/DTD/svg11.dtd">
<svg xmlns="http://www.w3.org/2000/svg" xmlns:xlink="http://www.w3.org/1999/xlink" version="1.1" width="349.99" height="349.99" viewBox="0 0 349.99 349.99" xml:space="preserve">
<desc>Created with Fabric.js 1.7.22</desc>
<defs>
</defs>
<g id="icon" style="stroke: none; stroke-width: 1; stroke-dasharray: none; stroke-linecap: butt; stroke-linejoin: miter; stroke-miterlimit: 10; fill: none; fill-rule: nonzero; opacity: 1;" transform="translate(-1.9443888888888807 -1.9443888888888807) scale(3.89 3.89)" >
	<path d="M 13.19 15.81 c -0.256 0 -0.512 -0.098 -0.707 -0.293 c -0.391 -0.391 -0.391 -1.023 0 -1.414 l 7.577 -7.577 c 0.391 -0.391 1.023 -0.391 1.414 0 s 0.391 1.023 0 1.414 l -7.577 7.577 C 13.702 15.712 13.446 15.81 13.19 15.81 z" style="stroke: none; stroke-width: 1; stroke-dasharray: none; stroke-linecap: butt; stroke-linejoin: miter; stroke-miterlimit: 10; fill: rgb(0,0,0); fill-rule: nonzero; opacity: 1;" transform=" matrix(1 0 0 1 0 0) " stroke-linecap="round" />
	<path d="M 25.464 12.021 c -0.256 0 -0.512 -0.098 -0.707 -0.293 c -0.391 -0.39 -0.391 -1.023 0 -1.414 l 3.567 -3.567 c 0.391 -0.391 1.023 -0.391 1.414 0 c 0.391 0.39 0.391 1.023 0 1.414 l -3.567 3.567 C 25.976 11.924 25.72 12.021 25.464 12.021 z" style="stroke: none; stroke-width: 1; stroke-dasharray: none; stroke-linecap: butt; stroke-linejoin: miter; stroke-miterlimit: 10; fill: rgb(0,0,0); fill-rule: nonzero; opacity: 1;" transform=" matrix(1 0 0 1 0 0) " stroke-linecap="round" />
	<path d="M 13.411 24.074 c -0.256 0 -0.512 -0.098 -0.707 -0.293 c -0.391 -0.391 -0.391 -1.023 0 -1.414 l 8.736 -8.736 c 0.391 -0.391 1.023 -0.391 1.414 0 s 0.391 1.023 0 1.414 l -8.736 8.736 C 13.923 23.976 13.667 24.074 13.411 24.074 z" style="stroke: none; stroke-width: 1; stroke-dasharray: none; stroke-linecap: butt; stroke-linejoin: miter; stroke-miterlimit: 10; fill: rgb(0,0,0); fill-rule: nonzero; opacity: 1;" transform=" matrix(1 0 0 1 0 0) " stroke-linecap="round" />
	<circle cx="39.21" cy="83.42" r="1.5" style="stroke: none; stroke-width: 1; stroke-dasharray: none; stroke-linecap: butt; stroke-linejoin: miter; stroke-miterlimit: 10; fill: rgb(0,0,0); fill-rule: nonzero; opacity: 1;" transform="  matrix(1 0 0 1 0 0) "/>
	<path d="M 83.166 61.638 l -2.072 -2.798 c 0 0 0 0 0 -0.001 s 0 0 0 0 l -8.07 -10.898 V 3.982 C 73.023 1.786 71.237 0 69.042 0 H 9.387 C 7.191 0 5.405 1.786 5.405 3.982 v 82.036 C 5.405 88.214 7.191 90 9.387 90 h 59.655 c 2.195 0 3.981 -1.786 3.981 -3.982 V 71.821 c 1.263 0.925 2.775 1.416 4.306 1.416 c 1.504 0 3.021 -0.464 4.319 -1.425 C 84.872 69.425 85.553 64.86 83.166 61.638 z M 52.631 41.487 l 8.478 -6.277 l 17.783 24.015 l -8.478 6.278 L 52.631 41.487 z M 51.86 39.57 L 49.31 28.642 c -0.042 -0.182 0.06 -0.289 0.124 -0.336 c 0.079 -0.059 0.206 -0.108 0.357 -0.02 l 9.708 5.628 L 51.86 39.57 z M 9.387 2 h 59.655 c 1.093 0 1.981 0.889 1.981 1.982 v 41.257 l -8.902 -12.023 c -0.084 -0.113 -0.188 -0.202 -0.303 -0.268 l 0.001 -0.002 l -11.025 -6.391 c -0.813 -0.472 -1.793 -0.419 -2.551 0.143 c -0.758 0.561 -1.095 1.48 -0.881 2.398 l 2.896 12.41 l 0.002 -0.001 c 0.031 0.132 0.085 0.258 0.167 0.369 L 71.033 69.7 h -0.009 v 7.18 H 7.405 V 3.982 C 7.405 2.889 8.294 2 9.387 2 z M 69.042 88 H 9.387 c -1.093 0 -1.982 -0.89 -1.982 -1.982 V 78.88 h 63.618 v 7.138 C 71.023 87.11 70.135 88 69.042 88 z M 80.459 70.205 c -2.338 1.729 -5.647 1.236 -7.378 -1.1 l -1.478 -1.995 l 8.478 -6.278 l 1.477 1.995 C 83.289 65.165 82.796 68.475 80.459 70.205 z" style="stroke: none; stroke-width: 1; stroke-dasharray: none; stroke-linecap: butt; stroke-linejoin: miter; stroke-miterlimit: 10; fill: rgb(0,0,0); fill-rule: nonzero; opacity: 1;" transform=" matrix(1 0 0 1 0 0) " stroke-linecap="round" />
</g>
</svg>