<svg xmlns="http://www.w3.org/2000/svg" width="429.387" height="56.013" viewBox="0 0 429.387 56.013">
  <g id="Raggruppa_985" data-name="Raggruppa 985" transform="translate(-73.754 -65.75)">
    <g id="Raggruppa_984" data-name="Raggruppa 984">
      <g id="Raggruppa_945" data-name="Raggruppa 945" transform="translate(32.135 36.696)">
        <g id="Raggruppa_940" data-name="Raggruppa 940" transform="translate(114.612 43.555)">
          <path id="Tracciato_96" data-name="Tracciato 96" d="M94.8,59.8V43.984h10.4v2.924H98.034v3.954h5.87v2.925h-5.87V59.8Z" transform="translate(-94.799 -37.993)" fill="#6e4e45"/>
          <path id="Tracciato_97" data-name="Tracciato 97" d="M119.234,59.8h-3.641l-4.1-5.582h-2.372V59.8h-3.235V43.984h5.943a5.965,5.965,0,0,1,4.1,1.414,4.681,4.681,0,0,1,1.607,3.691,4.986,4.986,0,0,1-.732,2.671,4.868,4.868,0,0,1-2.049,1.835ZM109.121,46.835v4.531h2.708a2.411,2.411,0,0,0,1.762-.623,2.211,2.211,0,0,0,.633-1.654,2.135,2.135,0,0,0-.659-1.629,2.426,2.426,0,0,0-1.736-.625Z" transform="translate(-90.668 -37.993)" fill="#6e4e45"/>
          <path id="Tracciato_98" data-name="Tracciato 98" d="M129.426,59.878l-.887-2.06h-6.47l-.888,2.06h-3.475l7.07-16.1h1.08l7.044,16.1Zm-2.014-4.72L125.3,49.815l-2.11,5.343Z" transform="translate(-86.265 -38.071)" fill="#6e4e45"/>
          <path id="Tracciato_99" data-name="Tracciato 99" d="M134.759,59.8V46.908H129.7V43.984h13.372v2.924h-5.08V59.8Z" transform="translate(-81.795 -37.993)" fill="#6e4e45"/>
          <path id="Tracciato_100" data-name="Tracciato 100" d="M142.745,59.8V43.984h10.64v2.924h-7.406v3.21h5.441v2.757h-5.441v4h7.693V59.8Z" transform="translate(-76.936 -37.993)" fill="#6e4e45"/>
          <path id="Tracciato_101" data-name="Tracciato 101" d="M167.845,59.8H164.2l-4.1-5.582H157.73V59.8h-3.235V43.984h5.943a5.965,5.965,0,0,1,4.1,1.414,4.681,4.681,0,0,1,1.607,3.691,4.986,4.986,0,0,1-.732,2.671,4.868,4.868,0,0,1-2.049,1.835ZM157.73,46.835v4.531h2.708a2.411,2.411,0,0,0,1.762-.623,2.211,2.211,0,0,0,.633-1.654,2.139,2.139,0,0,0-.657-1.629,2.432,2.432,0,0,0-1.738-.625Z" transform="translate(-72.558 -37.993)" fill="#6e4e45"/>
          <path id="Tracciato_102" data-name="Tracciato 102" d="M177.649,44.062h3.235v16.1h-1.077l-9.155-9.775v9.489h-3.235v-16.1h1.054l9.178,9.732Z" transform="translate(-67.744 -38.071)" fill="#6e4e45"/>
          <path id="Tracciato_103" data-name="Tracciato 103" d="M181.612,59.8V43.984h3.234V59.8Z" transform="translate(-62.455 -37.993)" fill="#6e4e45"/>
          <path id="Tracciato_104" data-name="Tracciato 104" d="M192.326,59.8V46.908h-5.057V43.984h13.372v2.924h-5.08V59.8Z" transform="translate(-60.348 -37.993)" fill="#6e4e45"/>
          <path id="Tracciato_105" data-name="Tracciato 105" d="M209.624,61.426l-.889-2.06h-6.47l-.885,2.06H197.9l7.071-16.1h1.08l7.045,16.1Zm-5.273-17.349-3.283-3.884v-.574h3.882l1.749,4.458Zm3.257,12.629L205.5,51.363l-2.11,5.343Z" transform="translate(-56.386 -39.619)" fill="#6e4e45"/>
          <path id="Tracciato_106" data-name="Tracciato 106" d="M217.247,56.668l2.23-1.679a4.777,4.777,0,0,0,3.882,2.3,2.623,2.623,0,0,0,1.655-.468,1.535,1.535,0,0,0,.6-1.281,1.345,1.345,0,0,0-.408-1.042,6.93,6.93,0,0,0-1.606-.922l-1.7-.767q-3.836-1.7-3.834-4.554a4.013,4.013,0,0,1,1.484-3.246,5.7,5.7,0,0,1,3.765-1.235,5.961,5.961,0,0,1,3.116.8,5.767,5.767,0,0,1,2.107,2.193l-2.2,1.7a3.568,3.568,0,0,0-3.018-1.821,2.33,2.33,0,0,0-1.415.406,1.326,1.326,0,0,0-.55,1.127,1.273,1.273,0,0,0,.394.972,5.81,5.81,0,0,0,1.451.851l1.8.791a8.571,8.571,0,0,1,2.969,1.975,3.874,3.874,0,0,1,.936,2.65,4.272,4.272,0,0,1-1.558,3.438,6,6,0,0,1-3.979,1.3,6.884,6.884,0,0,1-6.112-3.5Z" transform="translate(-49.179 -38.071)" fill="#6e4e45"/>
          <path id="Tracciato_107" data-name="Tracciato 107" d="M240.092,59.878l-.889-2.06h-6.47l-.885,2.06h-3.478l7.071-16.1h1.08l7.044,16.1Zm-2.016-4.72-2.107-5.343-2.11,5.343Z" transform="translate(-45.035 -38.071)" fill="#6e4e45"/>
          <path id="Tracciato_108" data-name="Tracciato 108" d="M252.992,44.062h3.234v16.1h-1.077l-9.154-9.775v9.489h-3.237v-16.1h1.053l9.181,9.732Z" transform="translate(-39.674 -38.071)" fill="#6e4e45"/>
          <path id="Tracciato_109" data-name="Tracciato 109" d="M262.926,51.971a7.574,7.574,0,0,1,2.434-5.825,8.192,8.192,0,0,1,6.024-2.372,7.721,7.721,0,0,1,6.664,3.427l-2.3,1.894a5.2,5.2,0,0,0-4.41-2.325,4.879,4.879,0,0,0-3.668,1.462,5.286,5.286,0,0,0,3.858,9.034A4.813,4.813,0,0,0,275.7,55.3V54.008h-4.363V51.2h7.6v4.674a8.385,8.385,0,0,1-3.09,3.114,8.537,8.537,0,0,1-4.461,1.174,8.055,8.055,0,0,1-5.991-2.361A7.68,7.68,0,0,1,262.926,51.971Z" transform="translate(-32.161 -38.071)" fill="#6e4e45"/>
          <path id="Tracciato_110" data-name="Tracciato 110" d="M278.378,59.8V43.984h3.232V59.8Z" transform="translate(-26.403 -37.993)" fill="#6e4e45"/>
          <path id="Tracciato_111" data-name="Tracciato 111" d="M285.013,53.258V43.984h3.234V53.5a3.552,3.552,0,0,0,.959,2.646,3.838,3.838,0,0,0,5.046,0A3.584,3.584,0,0,0,295.2,53.5V43.984h3.236v9.274a6.655,6.655,0,0,1-1.9,4.959,7.157,7.157,0,0,1-9.646,0A6.682,6.682,0,0,1,285.013,53.258Z" transform="translate(-23.931 -37.993)" fill="#6e4e45"/>
          <path id="Tracciato_112" data-name="Tracciato 112" d="M298.194,56.668l2.23-1.679a4.777,4.777,0,0,0,3.882,2.3,2.616,2.616,0,0,0,1.654-.468,1.535,1.535,0,0,0,.6-1.281,1.345,1.345,0,0,0-.408-1.042,6.912,6.912,0,0,0-1.6-.922l-1.7-.767q-3.836-1.7-3.835-4.554a4.014,4.014,0,0,1,1.485-3.246,5.7,5.7,0,0,1,3.764-1.235,5.965,5.965,0,0,1,3.117.8,5.753,5.753,0,0,1,2.105,2.193l-2.2,1.7a3.57,3.57,0,0,0-3.02-1.821,2.325,2.325,0,0,0-1.414.406,1.324,1.324,0,0,0-.552,1.127,1.269,1.269,0,0,0,.4.972,5.783,5.783,0,0,0,1.451.851l1.8.791a8.571,8.571,0,0,1,2.969,1.975,3.867,3.867,0,0,1,.936,2.65,4.268,4.268,0,0,1-1.558,3.438,5.988,5.988,0,0,1-3.978,1.3,6.884,6.884,0,0,1-6.112-3.5Z" transform="translate(-19.02 -38.071)" fill="#6e4e45"/>
          <path id="Tracciato_113" data-name="Tracciato 113" d="M310.505,59.8V43.984h10.639v2.924h-7.406v3.21h5.44v2.757h-5.44v4h7.693V59.8Z" transform="translate(-14.434 -37.993)" fill="#6e4e45"/>
          <path id="Tracciato_114" data-name="Tracciato 114" d="M322.255,59.8V43.984H328.2a5.969,5.969,0,0,1,4.1,1.414,4.685,4.685,0,0,1,1.606,3.691,4.732,4.732,0,0,1-1.606,3.691,5.912,5.912,0,0,1-4.1,1.438h-2.708V59.8Zm3.234-8.411H328.2a2.376,2.376,0,0,0,1.762-.636,2.245,2.245,0,0,0,.634-1.665,2.144,2.144,0,0,0-.657-1.629,2.438,2.438,0,0,0-1.739-.625h-2.708Z" transform="translate(-10.056 -37.993)" fill="#6e4e45"/>
          <path id="Tracciato_115" data-name="Tracciato 115" d="M334.371,59.8V43.984h5.945a5.962,5.962,0,0,1,4.1,1.414,5.038,5.038,0,0,1,0,7.382,5.905,5.905,0,0,1-4.1,1.438h-2.708V59.8Zm3.237-8.411h2.708a2.378,2.378,0,0,0,1.762-.636,2.254,2.254,0,0,0,.631-1.665,2.134,2.134,0,0,0-.658-1.629,2.424,2.424,0,0,0-1.736-.625h-2.708Z" transform="translate(-5.542 -37.993)" fill="#6e4e45"/>
          <path id="Tracciato_116" data-name="Tracciato 116" d="M346.49,59.8V43.984h10.642v2.924h-7.405v3.21h5.44v2.757h-5.44v4h7.693V59.8Z" transform="translate(-1.027 -37.993)" fill="#6e4e45"/>
        </g>
        <g id="Raggruppa_943" data-name="Raggruppa 943" transform="translate(41.619 29.054)">
          <circle id="Ellisse_106" data-name="Ellisse 106" cx="23.229" cy="23.229" r="23.229" transform="translate(4.263 4.778)" fill="#3f3433"/>
          <g id="Raggruppa_942" data-name="Raggruppa 942" transform="translate(0 0)">
            <path id="Tracciato_117" data-name="Tracciato 117" d="M48.237,50.992H38.182A14.247,14.247,0,0,0,23.95,64.585l-.362,7.851,2.98-2.54a11.446,11.446,0,0,1,7.421-2.733A14.248,14.248,0,0,0,48.237,52.915Z" transform="translate(-20.746 -21.619)" fill="#f2e9d7"/>
            <path id="Tracciato_118" data-name="Tracciato 118" d="M51.049,50.992H61.1A14.247,14.247,0,0,1,75.337,64.585l.361,7.851L72.719,69.9A11.446,11.446,0,0,0,65.3,67.163,14.248,14.248,0,0,1,51.049,52.915Z" transform="translate(-23.558 -21.619)" fill="#f2e9d7"/>
            <path id="Tracciato_119" data-name="Tracciato 119" d="M41.275,37.077c0,5.735,3.43,7.392,8.773,10.689,5.343-3.3,8.774-4.954,8.774-10.689s-3.431-14.293-8.774-17.59C44.7,22.784,41.275,31.343,41.275,37.077Z" transform="translate(-22.557 -18.393)" fill="#f6d89e"/>
            <path id="Tracciato_120" data-name="Tracciato 120" d="M41.275,37.077c0,5.735,3.43,7.392,8.773,10.689,5.343-3.3,8.774-4.954,8.774-10.689s-3.431-14.293-8.774-17.59C44.7,22.784,41.275,31.343,41.275,37.077Z" transform="translate(-22.557 -18.393)" fill="#f2e9d7"/>
            <g id="Raggruppa_941" data-name="Raggruppa 941" transform="translate(1.095 11.357)">
              <path id="Tracciato_121" data-name="Tracciato 121" d="M58,61.68c0-5.735-3.069-7.391-7.85-10.688-4.78,3.3-7.849,4.953-7.849,10.688a18.551,18.551,0,0,0,7.849,14.859A18.549,18.549,0,0,0,58,61.68Z" transform="translate(-23.757 -32.976)" fill="#f2e9d7"/>
              <path id="Tracciato_122" data-name="Tracciato 122" d="M48.039,48.937l-3-8.926a13.342,13.342,0,0,0-16.317-8.572l-7.076,2.025,3.144,1.886a10.712,10.712,0,0,1,4.643,5.771,13.345,13.345,0,0,0,16.9,8.391Z" transform="translate(-21.641 -30.921)" fill="#f2e9d7"/>
              <path id="Tracciato_123" data-name="Tracciato 123" d="M51.05,48.937l3-8.926a13.343,13.343,0,0,1,16.317-8.572l7.077,2.025L74.3,35.35a10.72,10.72,0,0,0-4.643,5.771,13.344,13.344,0,0,1-16.9,8.391Z" transform="translate(-24.652 -30.921)" fill="#f2e9d7"/>
            </g>
            <path id="Tracciato_124" data-name="Tracciato 124" d="M61.786,40.252a1.967,1.967,0,0,1,0-2.783l.837-.838a1.969,1.969,0,0,1,2.784,2.784l-.838.837A1.969,1.969,0,0,1,61.786,40.252Z" transform="translate(-24.598 -20.09)" fill="#fff"/>
            <path id="Tracciato_125" data-name="Tracciato 125" d="M50.824,32.667A1.969,1.969,0,0,1,48.856,30.7V29.513a1.968,1.968,0,1,1,3.937,0V30.7A1.969,1.969,0,0,1,50.824,32.667Z" transform="translate(-23.333 -19.218)" fill="#fff"/>
            <path id="Tracciato_126" data-name="Tracciato 126" d="M39.768,40.252a1.969,1.969,0,0,0,0-2.783l-.837-.838a1.969,1.969,0,0,0-2.784,2.784l.837.837A1.97,1.97,0,0,0,39.768,40.252Z" transform="translate(-21.973 -20.09)" fill="#fff"/>
            <path id="Tracciato_127" data-name="Tracciato 127" d="M75.4,32.026a1.094,1.094,0,0,0-.784-.91l-7.077-2.024a14.4,14.4,0,0,0-10.883,1.2C55.3,26,52.558,20.943,48.488,18.431a1.1,1.1,0,0,0-1.15,0C43.268,20.943,40.525,26,39.173,30.287a14.394,14.394,0,0,0-10.882-1.2l-7.077,2.025a1.094,1.094,0,0,0-.262,1.99L24.1,34.992a9.636,9.636,0,0,1,4.169,5.182,14.364,14.364,0,0,0,5.147,7.03,15.343,15.343,0,0,0-10.882,13.98l-.362,7.851a1.095,1.095,0,0,0,1.8.883l2.98-2.54a10.356,10.356,0,0,1,6.711-2.472,15.414,15.414,0,0,0,6.112-1.269,19.77,19.77,0,0,0,7.515,10.452,1.1,1.1,0,0,0,1.242,0,19.766,19.766,0,0,0,7.515-10.452,15.415,15.415,0,0,0,6.113,1.269,10.356,10.356,0,0,1,6.711,2.472l2.98,2.54a1.094,1.094,0,0,0,1.8-.883l-.361-7.851A15.345,15.345,0,0,0,62.412,47.2a14.36,14.36,0,0,0,5.148-7.03,9.632,9.632,0,0,1,4.169-5.182l3.144-1.886A1.093,1.093,0,0,0,75.4,32.026ZM47.913,20.675c3.43,2.441,5.737,7.059,6.832,10.857a14.389,14.389,0,0,0-4.864,6.834l-.873,2.594V32.607a3.066,3.066,0,0,0,1.968-2.859V28.564a3.063,3.063,0,1,0-6.125,0v1.185a3.067,3.067,0,0,0,1.968,2.859v8.352l-.872-2.593a14.4,14.4,0,0,0-4.865-6.835C42.176,27.733,44.483,23.115,47.913,20.675Zm.874,9.074a.874.874,0,1,1-1.749,0V28.564a.874.874,0,1,1,1.749,0ZM30.34,39.476a11.823,11.823,0,0,0-5.117-6.359l-.983-.59,4.653-1.332a12.231,12.231,0,0,1,14.979,7.87l2.186,6.494a21.112,21.112,0,0,1-6.627-6.913,3.066,3.066,0,0,0-.441-3.772l-.837-.837a3.062,3.062,0,1,0-4.331,4.33l.837.838a3.054,3.054,0,0,0,2.166.9,3.085,3.085,0,0,0,.856-.122,23.311,23.311,0,0,0,7.266,7.468A12.267,12.267,0,0,1,30.34,39.476Zm6.973-1.713a.874.874,0,0,1-1.107-.106l-.837-.837a.874.874,0,0,1,1.236-1.237l.837.837a.874.874,0,0,1,.019,1.215A1.189,1.189,0,0,0,37.314,37.763ZM33.665,62.718a12.551,12.551,0,0,0-8.131,2.994l-1.061.906.245-5.334A13.123,13.123,0,0,1,36.175,48.841c.029,0,.056-.009.083-.014a14.455,14.455,0,0,0,4.079,1.087l-.635.292a26.088,26.088,0,0,0-8.329,6.043c-.41.443-3.668,3.707-3.223,4.117.21.195,3.761-2.282,4.027-2.282a1.093,1.093,0,0,0,.8-.351,23.917,23.917,0,0,1,7.633-5.539l.137-.063a10.057,10.057,0,0,0-1.781,6.2,17.817,17.817,0,0,0,.285,3.143A13.208,13.208,0,0,1,33.665,62.718Zm14.248,9.118a17.47,17.47,0,0,1-6.754-13.507c0-4.466,2-6.1,5.66-8.613v8.647c0,.6.35,9.611.954,9.611s1.234-9.007,1.234-9.611V49.715c3.658,2.513,5.66,4.148,5.66,8.613A17.47,17.47,0,0,1,47.913,71.836Zm23.2-10.551.245,5.334-1.062-.906a12.546,12.546,0,0,0-8.13-2.994,13.205,13.205,0,0,1-5.591-1.246,17.819,17.819,0,0,0,.286-3.143,10.057,10.057,0,0,0-1.782-6.2l.137.063a23.917,23.917,0,0,1,7.633,5.539,1.093,1.093,0,0,0,.8.351c.266,0,2.335,2.476,2.545,2.282.444-.41-1.331-3.674-1.741-4.117a26.088,26.088,0,0,0-8.329-6.043l-.634-.292a14.5,14.5,0,0,0,4.069-1.082A13.238,13.238,0,0,1,71.108,61.285ZM70.6,33.116a11.819,11.819,0,0,0-5.117,6.359,12.267,12.267,0,0,1-14.608,7.971,23.311,23.311,0,0,0,7.266-7.468A3.085,3.085,0,0,0,59,40.1a3.054,3.054,0,0,0,2.166-.9L62,38.366a3.062,3.062,0,0,0-4.331-4.33l-.837.837a3.066,3.066,0,0,0-.442,3.772,21.106,21.106,0,0,1-6.626,6.912l2.186-6.493a12.232,12.232,0,0,1,14.98-7.87l4.652,1.332ZM58.512,37.763a1.115,1.115,0,0,0-.147-.127.875.875,0,0,1,.019-1.216l.837-.837a.874.874,0,1,1,1.236,1.237l-.837.837A.876.876,0,0,1,58.512,37.763Z" transform="translate(-20.421 -18.269)" fill="#3f3433"/>
          </g>
        </g>
      </g>
    </g>
  </g>
</svg>
