<svg id="Raggruppa_973" data-name="Raggruppa 973" xmlns="http://www.w3.org/2000/svg" width="60.717" height="61.854" viewBox="0 0 60.717 61.854">
  <ellipse id="Ellisse_113" data-name="Ellisse 113" cx="25.65" cy="25.65" rx="25.65" ry="25.65" transform="translate(4.708 5.276)" fill="#3f3433"/>
  <g id="Raggruppa_967" data-name="Raggruppa 967" transform="translate(0 0)">
    <path id="Tracciato_5112" data-name="Tracciato 5112" d="M488.761,329.686h-11.1A15.734,15.734,0,0,0,461.941,344.7l-.4,8.668,3.291-2.8a12.638,12.638,0,0,1,8.2-3.019,15.733,15.733,0,0,0,15.732-15.734Z" transform="translate(-458.405 -297.252)" fill="#f2e9d7"/>
    <path id="Tracciato_5113" data-name="Tracciato 5113" d="M472.552,329.686h11.106A15.734,15.734,0,0,1,499.374,344.7l.4,8.668-3.291-2.8a12.638,12.638,0,0,0-8.2-3.019,15.735,15.735,0,0,1-15.734-15.734Z" transform="translate(-442.196 -297.252)" fill="#f2e9d7"/>
    <path id="Tracciato_5114" data-name="Tracciato 5114" d="M468.634,336.481c0,6.332,3.788,8.161,9.687,11.8,5.9-3.639,9.689-5.469,9.689-11.8s-3.788-15.786-9.689-19.425C472.422,320.7,468.634,330.147,468.634,336.481Z" transform="translate(-447.964 -315.848)" fill="#f6d89e"/>
    <path id="Tracciato_5115" data-name="Tracciato 5115" d="M468.634,336.481c0,6.332,3.788,8.161,9.687,11.8,5.9-3.639,9.689-5.469,9.689-11.8s-3.788-15.786-9.689-19.425C472.422,320.7,468.634,330.147,468.634,336.481Z" transform="translate(-447.964 -315.848)" fill="#f2e9d7"/>
    <g id="Raggruppa_966" data-name="Raggruppa 966" transform="translate(1.207 12.541)">
      <path id="Tracciato_5116" data-name="Tracciato 5116" d="M486.381,341.489c0-6.332-3.387-8.161-8.668-11.8-5.276,3.642-8.666,5.471-8.666,11.8a20.494,20.494,0,0,0,8.666,16.409A20.483,20.483,0,0,0,486.381,341.489Z" transform="translate(-448.564 -309.793)" fill="#f2e9d7"/>
      <path id="Tracciato_5117" data-name="Tracciato 5117" d="M489.913,341.533l-3.318-9.855a14.735,14.735,0,0,0-18.018-9.467l-7.815,2.235,3.474,2.084a11.828,11.828,0,0,1,5.128,6.371,14.734,14.734,0,0,0,18.664,9.266Z" transform="translate(-460.762 -321.64)" fill="#f2e9d7"/>
      <path id="Tracciato_5118" data-name="Tracciato 5118" d="M472.553,341.533l3.315-9.855a14.735,14.735,0,0,1,18.018-9.467l7.815,2.235-3.471,2.084a11.844,11.844,0,0,0-5.13,6.371,14.732,14.732,0,0,1-18.664,9.266Z" transform="translate(-443.402 -321.64)" fill="#f2e9d7"/>
    </g>
    <path id="Tracciato_5119" data-name="Tracciato 5119" d="M477.262,328.334a2.177,2.177,0,0,1,0-3.076l.927-.925a2.174,2.174,0,0,1,3.073,3.076l-.925.925A2.177,2.177,0,0,1,477.262,328.334Z" transform="translate(-436.198 -306.069)" fill="#fff"/>
    <path id="Tracciato_5120" data-name="Tracciato 5120" d="M473.846,325.943a2.175,2.175,0,0,1-2.173-2.173v-1.308a2.174,2.174,0,1,1,4.349,0v1.308A2.175,2.175,0,0,1,473.846,325.943Z" transform="translate(-443.49 -311.092)" fill="#fff"/>
    <path id="Tracciato_5121" data-name="Tracciato 5121" d="M470.983,328.334a2.177,2.177,0,0,0,0-3.076l-.925-.925a2.175,2.175,0,0,0-3.076,3.076l.925.925A2.177,2.177,0,0,0,470.983,328.334Z" transform="translate(-451.332 -306.069)" fill="#fff"/>
    <path id="Tracciato_5122" data-name="Tracciato 5122" d="M520.98,331.759a1.215,1.215,0,0,0-.865-1.006l-7.815-2.235a15.91,15.91,0,0,0-12.018,1.32c-1.493-4.73-4.522-10.317-9.017-13.091a1.208,1.208,0,0,0-1.268,0c-4.495,2.774-7.523,8.361-9.017,13.091a15.9,15.9,0,0,0-12.016-1.32l-7.815,2.237a1.207,1.207,0,0,0-.289,2.2l3.471,2.084a10.635,10.635,0,0,1,4.606,5.721,15.853,15.853,0,0,0,5.684,7.763A16.941,16.941,0,0,0,462.6,363.956l-.4,8.67a1.2,1.2,0,0,0,.675,1.14,1.188,1.188,0,0,0,.531.124,1.205,1.205,0,0,0,.784-.289l3.291-2.8a11.434,11.434,0,0,1,7.412-2.73,17.039,17.039,0,0,0,6.749-1.4,21.821,21.821,0,0,0,8.3,11.541,1.2,1.2,0,0,0,1.372,0,21.821,21.821,0,0,0,8.3-11.541,17.04,17.04,0,0,0,6.75,1.4,11.434,11.434,0,0,1,7.412,2.73l3.291,2.8a1.208,1.208,0,0,0,1.99-.974l-.4-8.67a16.95,16.95,0,0,0-12.018-15.437,15.874,15.874,0,0,0,5.686-7.763,10.619,10.619,0,0,1,4.6-5.721l3.471-2.084A1.208,1.208,0,0,0,520.98,331.759ZM490.63,319.224c3.788,2.695,6.337,7.8,7.546,11.988a15.9,15.9,0,0,0-5.372,7.548l-.964,2.865V332.4a3.384,3.384,0,0,0,2.173-3.157v-1.308a3.381,3.381,0,1,0-6.762,0v1.308a3.384,3.384,0,0,0,2.173,3.157v9.222l-.964-2.863a15.911,15.911,0,0,0-5.37-7.548C484.3,327.02,486.842,321.919,490.63,319.224Zm.967,10.02a.965.965,0,0,1-1.931,0v-1.308a.965.965,0,1,1,1.931,0Zm-20.37,10.74a13.056,13.056,0,0,0-5.652-7.021l-1.085-.653,5.14-1.468a13.505,13.505,0,0,1,16.54,8.69l2.413,7.17a23.319,23.319,0,0,1-7.318-7.632,3.385,3.385,0,0,0-.487-4.166l-.925-.925a3.381,3.381,0,0,0-4.782,4.781l.925.925a3.369,3.369,0,0,0,2.391.989,3.424,3.424,0,0,0,.947-.134,25.736,25.736,0,0,0,8.023,8.245A13.54,13.54,0,0,1,471.227,339.984Zm7.7-1.889a.971.971,0,0,1-1.224-.119l-.925-.925a.965.965,0,0,1,1.365-1.365l.925.925a.968.968,0,0,1,.022,1.343A1,1,0,0,0,478.928,338.1ZM474.9,365.65a13.864,13.864,0,0,0-8.98,3.308l-1.172,1,.272-5.889a14.487,14.487,0,0,1,12.651-13.739c.03,0,.062-.01.091-.017a15.991,15.991,0,0,0,4.5,1.2l-.7.321a28.778,28.778,0,0,0-9.2,6.673c-.452.49-4.05,4.092-3.56,4.547.235.215,4.154-2.519,4.448-2.519a1.2,1.2,0,0,0,.888-.388,26.387,26.387,0,0,1,8.431-6.117l.151-.069a11.112,11.112,0,0,0-1.968,6.843,19.764,19.764,0,0,0,.317,3.471A14.586,14.586,0,0,1,474.9,365.65Zm15.732,10.07a19.3,19.3,0,0,1-7.459-14.916c0-4.93,2.213-6.735,6.253-9.511v9.548c0,.667.386,10.614,1.053,10.614s1.362-9.946,1.362-10.614v-9.548c4.04,2.776,6.25,4.581,6.25,9.511A19.29,19.29,0,0,1,490.63,375.72Zm25.616-11.652.27,5.889-1.172-1a13.864,13.864,0,0,0-8.98-3.308,14.586,14.586,0,0,1-6.173-1.375,19.764,19.764,0,0,0,.316-3.471,11.1,11.1,0,0,0-1.968-6.843l.151.069a26.384,26.384,0,0,1,8.431,6.117,1.208,1.208,0,0,0,.888.388c.294,0,2.579,2.732,2.811,2.519.49-.455-1.471-4.057-1.923-4.547a28.779,28.779,0,0,0-9.2-6.673l-.7-.321a16.025,16.025,0,0,0,4.492-1.2A14.618,14.618,0,0,1,516.246,364.068Zm-.559-31.1a13.052,13.052,0,0,0-5.652,7.024,13.543,13.543,0,0,1-16.13,8.8,25.711,25.711,0,0,0,8.023-8.245,3.424,3.424,0,0,0,.947.134,3.365,3.365,0,0,0,2.391-.989l.925-.925a3.381,3.381,0,0,0-4.782-4.781l-.925.925a3.382,3.382,0,0,0-.487,4.163,23.278,23.278,0,0,1-7.318,7.635l2.413-7.17a13.508,13.508,0,0,1,16.542-8.69l5.138,1.468ZM502.334,338.1a1.115,1.115,0,0,0-.163-.141.968.968,0,0,1,.022-1.343l.925-.925a.965.965,0,1,1,1.365,1.365l-.925.925A.968.968,0,0,1,502.334,338.1Z" transform="translate(-460.274 -316.567)" fill="#3f3433"/>
  </g>
</svg>
