<svg xmlns="http://www.w3.org/2000/svg" width="432.192" height="440.286" viewBox="0 0 432.192 440.286">
  <g id="Raggruppa_981" data-name="Raggruppa 981" opacity="0.122">
    <circle id="Ellisse_106" data-name="Ellisse 106" cx="182.586" cy="182.586" r="182.586" transform="translate(33.511 37.558)" fill="#3f3433"/>
    <g id="Raggruppa_942" data-name="Raggruppa 942" transform="translate(0 0)">
      <path id="Tracciato_117" data-name="Tracciato 117" d="M217.339,50.992H138.3A111.987,111.987,0,0,0,26.431,157.84l-2.843,61.714,23.424-19.967A89.969,89.969,0,0,1,105.347,178.1a111.992,111.992,0,0,0,111.992-112Z" transform="translate(-1.246 179.888)" fill="#f2e9d7"/>
      <path id="Tracciato_118" data-name="Tracciato 118" d="M51.049,50.992h79.043A111.987,111.987,0,0,1,241.963,157.84l2.836,61.714-23.417-19.967A89.97,89.97,0,0,0,163.048,178.1a112,112,0,0,1-112-112Z" transform="translate(165.044 179.888)" fill="#f2e9d7"/>
      <path id="Tracciato_119" data-name="Tracciato 119" d="M41.275,157.753c0,45.077,26.959,58.1,68.96,84.017,42-25.915,68.967-38.939,68.967-84.017S152.236,45.4,110.235,19.487C68.234,45.4,41.275,112.683,41.275,157.753Z" transform="translate(105.857 -10.89)" fill="#f6d89e"/>
      <path id="Tracciato_120" data-name="Tracciato 120" d="M41.275,157.753c0,45.077,26.959,58.1,68.96,84.017,42-25.915,68.967-38.939,68.967-84.017S152.236,45.4,110.235,19.487C68.234,45.4,41.275,112.683,41.275,157.753Z" transform="translate(105.857 -10.89)" fill="#f2e9d7"/>
      <g id="Raggruppa_941" data-name="Raggruppa 941" transform="translate(8.605 89.269)">
        <path id="Tracciato_121" data-name="Tracciato 121" d="M165.7,135c0-45.077-24.123-58.095-61.7-84.01C66.428,76.907,42.3,89.924,42.3,135S66.428,225.883,104,251.8C141.576,225.883,165.7,180.079,165.7,135Z" transform="translate(103.489 90.619)" fill="#f2e9d7"/>
        <path id="Tracciato_122" data-name="Tracciato 122" d="M229.135,172.532l-23.615-70.16A104.877,104.877,0,0,0,77.259,34.992L21.641,50.91,46.356,65.733a84.2,84.2,0,0,1,36.5,45.36,104.9,104.9,0,0,0,132.862,65.955Z" transform="translate(-21.641 -30.921)" fill="#f2e9d7"/>
        <path id="Tracciato_123" data-name="Tracciato 123" d="M51.05,172.532l23.608-70.16a104.88,104.88,0,0,1,128.262-67.38L258.545,50.91,233.822,65.733a84.267,84.267,0,0,0-36.5,45.36A104.889,104.889,0,0,1,64.462,177.047Z" transform="translate(156.444 -30.921)" fill="#f2e9d7"/>
      </g>
      <path id="Tracciato_124" data-name="Tracciato 124" d="M65.744,69.052a15.462,15.462,0,0,1,0-21.879l6.583-6.59A15.476,15.476,0,0,1,94.213,62.47l-6.59,6.583A15.475,15.475,0,0,1,65.744,69.052Z" transform="translate(226.569 89.431)" fill="#fff"/>
      <path id="Tracciato_125" data-name="Tracciato 125" d="M64.329,67.8A15.474,15.474,0,0,1,48.856,52.331V43.018a15.473,15.473,0,1,1,30.945,0v9.313A15.474,15.474,0,0,1,64.329,67.8Z" transform="translate(151.764 37.905)" fill="#fff"/>
      <path id="Tracciato_126" data-name="Tracciato 126" d="M68.569,69.052a15.475,15.475,0,0,0,0-21.879l-6.583-6.59A15.476,15.476,0,1,0,40.1,62.47l6.583,6.583A15.484,15.484,0,0,0,68.569,69.052Z" transform="translate(71.311 89.431)" fill="#fff"/>
      <path id="Tracciato_127" data-name="Tracciato 127" d="M452.539,126.4a8.6,8.6,0,0,0-6.16-7.154l-55.625-15.91a113.168,113.168,0,0,0-85.541,9.4c-10.619-33.676-32.187-73.448-64.177-93.189a8.614,8.614,0,0,0-9.038,0c-32,19.741-53.558,59.513-64.184,93.189a113.143,113.143,0,0,0-85.534-9.4L26.656,119.257A8.6,8.6,0,0,0,24.6,134.9l24.722,14.824a75.741,75.741,0,0,1,32.773,40.731,112.9,112.9,0,0,0,40.456,55.259A120.6,120.6,0,0,0,37.013,355.6L34.17,417.316a8.605,8.605,0,0,0,14.174,6.943l23.424-19.967a81.4,81.4,0,0,1,52.754-19.431,121.164,121.164,0,0,0,48.041-9.977c9.934,32.808,30.988,62.78,59.068,82.154a8.616,8.616,0,0,0,9.765,0c28.088-19.374,49.134-49.346,59.068-82.154a121.172,121.172,0,0,0,48.048,9.977,81.4,81.4,0,0,1,52.754,19.431l23.424,19.967a8.6,8.6,0,0,0,14.167-6.943L436.022,355.6a120.615,120.615,0,0,0-85.54-109.889,112.874,112.874,0,0,0,40.463-55.259,75.71,75.71,0,0,1,32.773-40.731L448.432,134.9A8.588,8.588,0,0,0,452.539,126.4ZM236.514,37.181c26.959,19.184,45.1,55.484,53.7,85.343a113.1,113.1,0,0,0-38.234,53.72l-6.865,20.39V130.976A24.1,24.1,0,0,0,260.587,108.5V99.191a24.073,24.073,0,0,0-48.147,0V108.5a24.11,24.11,0,0,0,15.473,22.472v65.651l-6.851-20.383a113.215,113.215,0,0,0-38.241-53.727C191.422,92.665,209.555,56.365,236.514,37.181Zm6.872,71.324a6.872,6.872,0,1,1-13.744,0V99.191a6.872,6.872,0,0,1,13.744,0Zm-145,76.46a92.93,92.93,0,0,0-40.223-49.988l-7.726-4.635,36.576-10.47a96.143,96.143,0,0,1,117.742,61.862l17.18,51.046a165.946,165.946,0,0,1-52.091-54.341,24.1,24.1,0,0,0-3.464-29.647l-6.583-6.583a24.069,24.069,0,1,0-34.043,34.036l6.583,6.59a24.006,24.006,0,0,0,17.025,7.041,24.25,24.25,0,0,0,6.731-.96,183.233,183.233,0,0,0,57.114,58.7A96.421,96.421,0,0,1,98.389,184.965ZM153.2,171.5a6.872,6.872,0,0,1-8.7-.833l-6.583-6.583a6.872,6.872,0,0,1,9.715-9.722l6.583,6.583a6.873,6.873,0,0,1,.148,9.553A9.34,9.34,0,0,0,153.2,171.5ZM124.522,367.659A98.652,98.652,0,0,0,60.607,391.2l-8.34,7.119,1.926-41.924a103.151,103.151,0,0,1,90.056-97.81c.226-.028.437-.071.656-.113a113.624,113.624,0,0,0,32.06,8.544l-4.988,2.293a205.059,205.059,0,0,0-65.468,47.5c-3.224,3.485-28.829,29.139-25.336,32.363,1.651,1.531,29.562-17.935,31.651-17.935a8.589,8.589,0,0,0,6.322-2.759,188,188,0,0,1,60-43.539l1.079-.494c-8.84,12.248-14,27.291-14,48.718a140.039,140.039,0,0,0,2.244,24.708A103.822,103.822,0,0,1,124.522,367.659Zm111.992,71.67c-32.427-24.793-53.093-65.8-53.093-106.171,0-35.1,15.748-47.949,44.492-67.7v67.973c0,4.755,2.752,75.55,7.5,75.55s9.7-70.795,9.7-75.55V265.454c28.751,19.755,44.492,32.6,44.492,67.7C289.607,373.529,268.941,414.536,236.514,439.329Zm182.328-82.937,1.926,41.924-8.347-7.119a98.619,98.619,0,0,0-63.909-23.537,103.8,103.8,0,0,1-43.948-9.793,140.06,140.06,0,0,0,2.251-24.708c0-21.427-5.165-36.47-14.005-48.718l1.08.494a188,188,0,0,1,60,43.539,8.589,8.589,0,0,0,6.322,2.759c2.089,0,18.351,19.459,20,17.935,3.493-3.224-10.463-28.878-13.688-32.363a205.058,205.058,0,0,0-65.468-47.5l-4.981-2.293a113.953,113.953,0,0,0,31.982-8.509C377.616,264.494,416.541,306.326,418.842,356.392Zm-3.972-221.415a92.9,92.9,0,0,0-40.223,49.988,96.421,96.421,0,0,1-114.821,62.653,183.232,183.232,0,0,0,57.114-58.7,24.251,24.251,0,0,0,6.731.96,24.006,24.006,0,0,0,17.025-7.041l6.583-6.59a24.069,24.069,0,1,0-34.043-34.036l-6.583,6.583a24.1,24.1,0,0,0-3.471,29.647A165.9,165.9,0,0,1,251.1,232.773l17.18-51.039a96.148,96.148,0,0,1,117.749-61.862l36.568,10.47ZM319.825,171.5a8.758,8.758,0,0,0-1.157-.995,6.875,6.875,0,0,1,.148-9.56l6.583-6.583a6.872,6.872,0,0,1,9.715,9.722l-6.583,6.583A6.883,6.883,0,0,1,319.825,171.5Z" transform="translate(-20.421 -18.269)" fill="#3f3433"/>
    </g>
  </g>
</svg>
