<?xml version="1.0" encoding="UTF-8" standalone="no" ?>
<!DOCTYPE svg PUBLIC "-//W3C//DTD SVG 1.1//EN" "http://www.w3.org/Graphics/SVG/1.1/DTD/svg11.dtd">
<svg xmlns="http://www.w3.org/2000/svg" xmlns:xlink="http://www.w3.org/1999/xlink" version="1.1" width="349.99" height="349.99" viewBox="0 0 349.99 349.99" xml:space="preserve">
<desc>Created with Fabric.js 1.7.22</desc>
<defs>
</defs>
<g id="icon" style="stroke: none; stroke-width: 1; stroke-dasharray: none; stroke-linecap: butt; stroke-linejoin: miter; stroke-miterlimit: 10; fill: none; fill-rule: nonzero; opacity: 1;" transform="translate(-1.9443888888888807 -1.9443888888888807) scale(3.89 3.89)" >
	<path d="M 23.339 74.253 c -5.23 0 -9.484 -4.254 -9.484 -9.484 c 0 -0.462 0.034 -0.922 0.102 -1.378 l -5.809 0.054 c -3.14 0.013 -5.875 -2.06 -6.683 -5.08 l -1.23 -4.591 c -0.809 -3.02 0.526 -6.203 3.249 -7.742 l 52.013 -29.393 c 1.859 -1.05 4.055 -1.179 6.024 -0.353 c 1.969 0.826 3.416 2.484 3.97 4.547 l 8.958 33.431 c 0.552 2.063 0.128 4.222 -1.164 5.921 c -1.292 1.701 -3.258 2.687 -5.394 2.707 l -35.195 0.325 c 0.085 0.51 0.127 1.029 0.127 1.551 C 32.823 69.998 28.568 74.253 23.339 74.253 z M 18.053 60.386 l -0.788 2.038 c -0.294 0.761 -0.443 1.55 -0.443 2.344 c 0 3.594 2.924 6.517 6.517 6.517 c 3.593 0 6.516 -2.924 6.516 -6.517 c 0 -0.844 -0.163 -1.671 -0.483 -2.457 l -0.825 -2.023 l 39.315 -0.363 c 1.211 -0.012 2.327 -0.571 3.059 -1.536 c 0.733 -0.964 0.974 -2.188 0.66 -3.357 L 62.623 21.6 c -0.313 -1.17 -1.134 -2.11 -2.25 -2.578 c -1.116 -0.468 -2.36 -0.397 -3.416 0.2 L 4.942 48.614 c -1.543 0.873 -2.301 2.678 -1.842 4.39 l 1.23 4.592 c 0.459 1.712 2.034 2.864 3.791 2.881 L 18.053 60.386 z" style="stroke: none; stroke-width: 1; stroke-dasharray: none; stroke-linecap: butt; stroke-linejoin: miter; stroke-miterlimit: 10; fill: rgb(0,0,0); fill-rule: nonzero; opacity: 1;" transform=" matrix(1 0 0 1 0 0) " stroke-linecap="round" />
	<path d="M 76.606 37.792 c -0.658 0 -1.259 -0.441 -1.434 -1.107 c -0.208 -0.792 0.266 -1.603 1.059 -1.811 l 11.909 -3.126 c 0.794 -0.209 1.603 0.265 1.812 1.058 c 0.208 0.792 -0.266 1.603 -1.059 1.811 l -11.909 3.126 C 76.857 37.776 76.731 37.792 76.606 37.792 z" style="stroke: none; stroke-width: 1; stroke-dasharray: none; stroke-linecap: butt; stroke-linejoin: miter; stroke-miterlimit: 10; fill: rgb(0,0,0); fill-rule: nonzero; opacity: 1;" transform=" matrix(1 0 0 1 0 0) " stroke-linecap="round" />
	<path d="M 74.174 28.178 c -0.543 0 -1.065 -0.299 -1.326 -0.817 c -0.368 -0.732 -0.073 -1.624 0.659 -1.992 l 7.147 -3.596 c 0.73 -0.369 1.624 -0.073 1.992 0.658 c 0.368 0.732 0.073 1.624 -0.659 1.992 l -7.147 3.596 C 74.626 28.126 74.398 28.178 74.174 28.178 z" style="stroke: none; stroke-width: 1; stroke-dasharray: none; stroke-linecap: butt; stroke-linejoin: miter; stroke-miterlimit: 10; fill: rgb(0,0,0); fill-rule: nonzero; opacity: 1;" transform=" matrix(1 0 0 1 0 0) " stroke-linecap="round" />
	<path d="M 79.208 47.362 c -0.787 0 -1.443 -0.619 -1.481 -1.413 c -0.039 -0.819 0.593 -1.513 1.411 -1.552 l 7.992 -0.378 c 0.834 -0.036 1.512 0.593 1.552 1.412 c 0.039 0.819 -0.593 1.513 -1.411 1.552 l -7.992 0.378 C 79.256 47.362 79.231 47.362 79.208 47.362 z" style="stroke: none; stroke-width: 1; stroke-dasharray: none; stroke-linecap: butt; stroke-linejoin: miter; stroke-miterlimit: 10; fill: rgb(0,0,0); fill-rule: nonzero; opacity: 1;" transform=" matrix(1 0 0 1 0 0) " stroke-linecap="round" />
</g>
</svg>