<svg xmlns="http://www.w3.org/2000/svg" width="86.737" height="35.992" viewBox="0 0 86.737 35.992">
  <g id="empatia" transform="translate(-143.805 -1249)">
    <g id="Ellisse_104" data-name="Ellisse 104" transform="translate(152 1249)" fill="#fff" stroke="#6e4e45" stroke-width="2">
      <circle cx="7.5" cy="7.5" r="7.5" stroke="none"/>
      <circle cx="7.5" cy="7.5" r="6.5" fill="none"/>
    </g>
    <path id="Tracciato_50" data-name="Tracciato 50" d="M-2412.178,1319.992s.281-16.047,13.828-16.047,13.871,16.047,13.871,16.047Z" transform="translate(2557 -36)" fill="none" stroke="#6e4e45" stroke-width="2"/>
    <g id="Ellisse_105" data-name="Ellisse 105" transform="translate(209 1249)" fill="#fff" stroke="#6e4e45" stroke-width="2">
      <circle cx="7.5" cy="7.5" r="7.5" stroke="none"/>
      <circle cx="7.5" cy="7.5" r="6.5" fill="none"/>
    </g>
    <path id="Tracciato_51" data-name="Tracciato 51" d="M-2412.178,1319.992s.281-16.047,13.828-16.047,13.871,16.047,13.871,16.047Z" transform="translate(2614 -36)" fill="none" stroke="#6e4e45" stroke-width="2"/>
    <g id="refresh-ccw" transform="translate(175 1253.998)">
      <path id="Tracciato_54" data-name="Tracciato 54" d="M1,4v6H7" fill="none" stroke="#6e4e45" stroke-linecap="round" stroke-linejoin="round" stroke-width="2"/>
      <path id="Tracciato_55" data-name="Tracciato 55" d="M23,20V14H17" fill="none" stroke="#6e4e45" stroke-linecap="round" stroke-linejoin="round" stroke-width="2"/>
      <path id="Tracciato_56" data-name="Tracciato 56" d="M20.49,9A9,9,0,0,0,5.64,5.64L1,10m22,4-4.64,4.36A9,9,0,0,1,3.51,15" fill="none" stroke="#6e4e45" stroke-linecap="round" stroke-linejoin="round" stroke-width="2"/>
    </g>
  </g>
</svg>
