<svg xmlns="http://www.w3.org/2000/svg" width="78.894" height="63.676" viewBox="0 0 78.894 63.676">
  <g id="puzzle" transform="translate(-276.122 -1408.194)">
    <path id="Unione_4" data-name="Unione 4" d="M7.45,31.435a3.3,3.3,0,0,1-1.582-4.55c.577-1.3,2.507-1.441,3.367-2.961L0,19.7S6.99,4.026,8.089,1.7,10.666-.086,12.043.545,30.932,9.082,30.932,9.082l-9.4,20.47L12.459,25.4l0,.005c-.384,1.273-.256,1.23,0,3.5.2,1.734-1.56,2.869-3.376,2.869A4.018,4.018,0,0,1,7.45,31.435Z" transform="translate(328.874 1470.936) rotate(180)" fill="#fff" stroke="#6e4e45" stroke-width="2"/>
    <path id="Unione_3" data-name="Unione 3" d="M7.229,31.9a3.3,3.3,0,0,1-1.582-4.55c.515-1.161,2.111-1.4,3.058-2.519L0,20.839S7.639,4.026,8.738,1.7,11.315-.086,12.692.545,30.957,8.8,30.957,8.8L20.9,30.415l-8.811-4.036c-.2.8-.073,1.07.144,2.984.2,1.734-1.56,2.869-3.376,2.869A4.018,4.018,0,0,1,7.229,31.9Z" transform="translate(277.057 1461.898) rotate(-90)" fill="#fff" stroke="#6e4e45" stroke-width="2"/>
    <path id="Unione_1" data-name="Unione 1" d="M7.45,31.435a3.3,3.3,0,0,1-1.582-4.55c.577-1.3,2.507-1.441,3.367-2.961L0,19.7l.073-.164C1.713,15.859,7.137,3.715,8.089,1.7A3.446,3.446,0,0,1,9.079.365,1.785,1.785,0,0,1,10.184,0a4.7,4.7,0,0,1,1.859.545c1.252.573,15.892,7.184,18.814,8.5l.075.034L26.9,17.849a6.811,6.811,0,0,1-.816-1.274,3.36,3.36,0,0,0-1.327-1.6,4.079,4.079,0,0,0-1.747-.406,3.113,3.113,0,0,0-1.583.406A3.229,3.229,0,0,0,20.158,16.4a4.2,4.2,0,0,0,.184,3.906,2.327,2.327,0,0,0,1.99,1.195c.061,0,.122,0,.184-.007.448-.035.81-.068,1.1-.1.464-.043.771-.071,1.034-.071a2.706,2.706,0,0,1,.624.068l-3.747,8.156L12.459,25.4l0,.005c-.384,1.273-.256,1.23,0,3.5.2,1.734-1.56,2.869-3.376,2.869A4.018,4.018,0,0,1,7.45,31.435Z" transform="translate(285.841 1411.259)" fill="#fff" stroke="#6e4e45" stroke-width="2"/>
    <path id="Unione_2" data-name="Unione 2" d="M7.272,30.213A3.148,3.148,0,0,1,5.727,25.84c.563-1.249,2.447-1.385,3.286-2.846L0,18.931l.071-.157c1.6-3.531,6.895-15.2,7.824-17.141A3.318,3.318,0,0,1,8.862.351,1.76,1.76,0,0,1,9.94,0a4.642,4.642,0,0,1,1.814.523c1.222.551,15.511,6.9,18.364,8.173l.073.032L26.26,17.155a6.535,6.535,0,0,1-.8-1.224,3.242,3.242,0,0,0-1.3-1.536,4.032,4.032,0,0,0-1.7-.39,3.076,3.076,0,0,0-1.545.39,3.121,3.121,0,0,0-1.243,1.367,3.982,3.982,0,0,0,.179,3.754A2.277,2.277,0,0,0,21.8,20.665c.059,0,.12,0,.179-.007.437-.034.791-.066,1.075-.091.453-.041.752-.068,1.01-.068a2.682,2.682,0,0,1,.609.066L21.012,28.4l-8.851-3.99v.005c-.375,1.223-.25,1.182,0,3.36.191,1.667-1.523,2.758-3.295,2.758A3.973,3.973,0,0,1,7.272,30.213Z" transform="matrix(-0.485, 0.875, -0.875, -0.485, 353.5, 1424.64)" fill="#fff" stroke="#6e4e45" stroke-width="2"/>
  </g>
</svg>
